<?xml version="1.0" encoding="UTF-8" standalone="no"?>
<!-- Created with Inkscape (http://www.inkscape.org/) -->

<svg
   xmlns:ns0="http://www.iki.fi/pav/software/textext/"
   xmlns:dc="http://purl.org/dc/elements/1.1/"
   xmlns:cc="http://creativecommons.org/ns#"
   xmlns:rdf="http://www.w3.org/1999/02/22-rdf-syntax-ns#"
   xmlns:svg="http://www.w3.org/2000/svg"
   xmlns="http://www.w3.org/2000/svg"
   xmlns:sodipodi="http://sodipodi.sourceforge.net/DTD/sodipodi-0.dtd"
   xmlns:inkscape="http://www.inkscape.org/namespaces/inkscape"
   width="210mm"
   height="297mm"
   viewBox="0 0 210 297"
   version="1.1"
   id="svg2766"
   inkscape:version="0.92.2 (5c3e80d, 2017-08-06)"
   sodipodi:docname="comparison.svg">
  <sodipodi:namedview
     id="base"
     pagecolor="#ffffff"
     bordercolor="#666666"
     borderopacity="1.0"
     inkscape:pageopacity="0.0"
     inkscape:pageshadow="2"
     inkscape:zoom="1.4"
     inkscape:cx="452.03117"
     inkscape:cy="977.83517"
     inkscape:document-units="mm"
     inkscape:current-layer="layer1"
     showgrid="false"
     inkscape:window-width="1920"
     inkscape:window-height="1016"
     inkscape:window-x="0"
     inkscape:window-y="27"
     inkscape:window-maximized="1"
     showguides="false" />
  <defs
     id="defs2760" />
  <metadata
     id="metadata2763">
    <rdf:RDF>
      <cc:Work
         rdf:about="">
        <dc:format>image/svg+xml</dc:format>
        <dc:type
           rdf:resource="http://purl.org/dc/dcmitype/StillImage" />
        <dc:title />
      </cc:Work>
    </rdf:RDF>
  </metadata>
  <g
     inkscape:label="Layer 1"
     inkscape:groupmode="layer"
     id="layer1">
    <path
       style="fill:none;stroke:#000000;stroke-width:0.26458332px;stroke-linecap:butt;stroke-linejoin:miter;stroke-opacity:1"
       d="M 26.080357,25.991071 V 72.860117"
       id="path3330"
       inkscape:connector-curvature="0" />
    <path
       style="fill:none;stroke:#000000;stroke-width:0.26458332px;stroke-linecap:butt;stroke-linejoin:miter;stroke-opacity:1"
       d="M 69.241238,25.823046 V 72.692092"
       id="path3330-5"
       inkscape:connector-curvature="0" />
    <g
       style="font-style:normal;font-variant:normal;font-weight:normal;font-stretch:normal;letter-spacing:normal;word-spacing:normal;text-anchor:start;fill:none;fill-opacity:1;fill-rule:evenodd;stroke:#000000;stroke-linecap:butt;stroke-linejoin:miter;stroke-miterlimit:10.43299961;stroke-dasharray:none;stroke-dashoffset:0;stroke-opacity:1"
       id="content"
       transform="matrix(0.911651,0,0,-0.911651,-120.6497,622.55897)"
       xml:space="preserve"
       stroke-miterlimit="10.433"
       font-style="normal"
       font-variant="normal"
       font-weight="normal"
       font-stretch="normal"
       font-size-adjust="none"
       letter-spacing="normal"
       word-spacing="normal"
       ns0:version="0.8.1"
       ns0:texconverter="pdflatex"
       ns0:pdfconverter="pstoedit"
       ns0:text="$input$"
       ns0:preamble="/home/newtonis/.config/inkscape/extensions/CircuitSymbolsLatexPreamble.tex"
       ns0:scale="2.58420887924"
       ns0:alignment="middle center"
       inkscapeversion="0.92.2"
       ns0:jacobian_sqrt="0.911651"><path
         style="fill:#000000;stroke-width:0"
         inkscape:connector-curvature="0"
         d="m 151.98052,664.58017 v 0.02 0.02 0.02 0.02 l -0.01,0.01 v 0.02 l -0.01,0.02 v 0.01 l -0.01,0.02 -0.01,0.01 v 0.02 l -0.01,0.01 -0.01,0.02 -0.01,0.01 -0.01,0.01 -0.01,0.02 -0.02,0.01 -0.01,0.01 -0.01,0.01 -0.02,0.01 -0.01,0.01 -0.02,0.01 -0.01,0.01 h -0.02 l -0.02,0.01 -0.02,0.01 h -0.01 -0.02 l -0.02,0.01 h -0.02 -0.02 -0.02 c -0.27,0 -0.54,-0.26 -0.54,-0.52 0,-0.19 0.14,-0.36 0.38,-0.36 0.22,0 0.52,0.23 0.52,0.52 z"
         id="path4726" /><path
         style="fill:#000000;stroke-width:0"
         inkscape:connector-curvature="0"
         d="m 151.23052,660.85017 0.01,0.02 0.01,0.03 0.01,0.02 0.01,0.02 v 0.03 l 0.01,0.02 0.01,0.01 0.01,0.02 v 0.02 l 0.01,0.02 0.01,0.01 v 0.02 l 0.01,0.01 v 0.02 l 0.01,0.02 0.01,0.03 0.01,0.03 0.01,0.02 v 0.01 l 0.01,0.02 0.01,0.01 v 0.02 l 0.01,0.02 0.01,0.02 v 0.01 l 0.01,0.03 0.01,0.02 0.01,0.02 0.01,0.02 c 0.08,0.2 0.12,0.34 0.12,0.53 0,0.45 -0.31,0.82 -0.81,0.82 -0.94,0 -1.32,-1.45 -1.32,-1.53 0,-0.1 0.1,-0.1 0.12,-0.1 0.1,0 0.11,0.02 0.16,0.17 0.27,0.94 0.67,1.24 1.01,1.24 0.08,0 0.25,0 0.25,-0.32 0,-0.21 -0.07,-0.42 -0.11,-0.52 -0.08,-0.26 -0.53,-1.41 -0.69,-1.84 -0.1,-0.25 -0.23,-0.58 -0.23,-0.79 0,-0.47 0.34,-0.81 0.82,-0.81 0.93,0 1.3,1.44 1.3,1.53 0,0.1 -0.09,0.1 -0.12,0.1 -0.1,0 -0.1,-0.04 -0.14,-0.18 -0.19,-0.63 -0.51,-1.24 -1.02,-1.24 -0.17,0 -0.24,0.1 -0.24,0.33 0,0.25 0.06,0.39 0.29,0.99 z"
         id="path4728" /><path
         style="fill:#000000;stroke-width:0"
         inkscape:connector-curvature="0"
         d="m 153.46052,658.96017 v -0.01 -0.02 l -0.01,-0.01 v -0.02 l -0.01,-0.03 v -0.03 l -0.01,-0.03 -0.01,-0.04 -0.01,-0.03 v -0.03 l -0.01,-0.01 v -0.02 -0.01 l -0.01,-0.02 v -0.01 -0.01 l -0.01,-0.02 v -0.01 -0.01 -0.01 -0.01 l -0.01,-0.01 v -0.01 0 -0.01 -0.01 c 0,-0.17 0.14,-0.26 0.29,-0.26 0.12,0 0.3,0.08 0.37,0.27 0.01,0.02 0.13,0.49 0.19,0.74 l 0.22,0.89 c 0.06,0.22 0.12,0.44 0.17,0.67 0.04,0.17 0.12,0.46 0.13,0.5 0.15,0.3 0.68,1.21 1.62,1.21 0.45,0 0.54,-0.37 0.54,-0.7 0,-0.61 -0.49,-1.89 -0.65,-2.31 -0.09,-0.23 -0.1,-0.35 -0.1,-0.46 0,-0.47 0.35,-0.81 0.82,-0.81 0.94,0 1.31,1.45 1.31,1.53 0,0.1 -0.09,0.1 -0.12,0.1 -0.1,0 -0.1,-0.04 -0.15,-0.18 -0.2,-0.68 -0.53,-1.24 -1.02,-1.24 -0.17,0 -0.24,0.1 -0.24,0.33 0,0.25 0.09,0.49 0.18,0.71 0.19,0.52 0.61,1.62 0.61,2.18 0,0.67 -0.43,1.07 -1.15,1.07 -0.89,0 -1.38,-0.64 -1.55,-0.87 -0.05,0.56 -0.46,0.87 -0.92,0.87 -0.46,0 -0.65,-0.39 -0.75,-0.57 -0.16,-0.34 -0.3,-0.92 -0.3,-0.96 0,-0.1 0.1,-0.1 0.12,-0.1 0.1,0 0.11,0.01 0.17,0.22 0.17,0.71 0.37,1.19 0.73,1.19 0.2,0 0.31,-0.13 0.31,-0.46 0,-0.21 -0.03,-0.32 -0.16,-0.83 z"
         id="path4730" /><path
         style="fill:#000000;stroke-width:0"
         inkscape:connector-curvature="0"
         d="m 159.01052,657.16017 -0.01,-0.03 v -0.03 l -0.01,-0.03 -0.01,-0.02 v -0.03 l -0.01,-0.02 -0.01,-0.02 v -0.02 l -0.01,-0.02 -0.01,-0.02 -0.01,-0.02 -0.01,-0.01 -0.01,-0.02 -0.01,-0.01 -0.01,-0.02 -0.01,-0.01 -0.02,-0.01 -0.01,-0.01 -0.02,-0.01 h -0.01 l -0.02,-0.01 -0.02,-0.01 h -0.02 l -0.03,-0.01 h -0.02 -0.02 l -0.01,-0.01 h -0.01 -0.02 -0.01 -0.02 -0.02 -0.01 -0.02 -0.02 -0.02 -0.02 -0.02 -0.02 c -0.12,0 -0.23,0 -0.23,-0.19 0,-0.08 0.05,-0.12 0.13,-0.12 0.27,0 0.56,0.03 0.84,0.03 0.33,0 0.67,-0.03 0.99,-0.03 0.05,0 0.18,0 0.18,0.2 0,0.11 -0.1,0.11 -0.24,0.11 -0.5,0 -0.5,0.06 -0.5,0.16 0,0.11 0.42,1.73 0.49,1.98 0.13,-0.29 0.41,-0.63 0.92,-0.63 l -0.01,0.21 c -0.66,0 -0.79,0.83 -0.79,0.89 0,0.02 0,0.04 0.03,0.16 l 0.49,1.94 c 0.07,0.27 0.34,0.55 0.52,0.7 0.35,0.31 0.63,0.38 0.8,0.38 0.4,0 0.64,-0.35 0.64,-0.94 0,-0.58 -0.33,-1.73 -0.51,-2.1 -0.34,-0.7 -0.81,-1.03 -1.18,-1.03 l 0.01,-0.21 c 1.15,0 2.4,1.45 2.4,2.91 0,0.93 -0.57,1.59 -1.33,1.59 -0.5,0 -0.97,-0.36 -1.3,-0.75 -0.1,0.54 -0.53,0.75 -0.9,0.75 -0.46,0 -0.65,-0.39 -0.74,-0.57 -0.18,-0.34 -0.31,-0.93 -0.31,-0.96 0,-0.1 0.1,-0.1 0.12,-0.1 0.1,0 0.11,0.01 0.17,0.22 0.17,0.71 0.37,1.19 0.73,1.19 0.17,0 0.31,-0.08 0.31,-0.46 0,-0.23 -0.03,-0.34 -0.07,-0.51 z"
         id="path4732" /><path
         style="fill:#000000;stroke-width:0"
         inkscape:connector-curvature="0"
         d="m 167.07052,658.93017 0.01,-0.04 0.01,-0.03 0.01,-0.04 0.02,-0.03 0.01,-0.04 0.02,-0.03 0.02,-0.03 0.02,-0.03 0.02,-0.03 0.02,-0.03 0.03,-0.03 0.02,-0.03 0.03,-0.02 0.02,-0.03 0.03,-0.02 0.03,-0.02 0.03,-0.03 0.03,-0.02 0.03,-0.01 0.03,-0.02 0.04,-0.02 0.03,-0.01 0.03,-0.02 0.04,-0.01 0.04,-0.01 0.03,-0.01 0.04,-0.01 h 0.04 l 0.04,-0.01 h 0.03 0.04 0.04 c 0.35,0 0.58,0.22 0.74,0.54 0.17,0.36 0.3,0.97 0.3,0.99 0,0.1 -0.09,0.1 -0.12,0.1 -0.1,0 -0.11,-0.04 -0.14,-0.18 -0.14,-0.56 -0.33,-1.24 -0.75,-1.24 -0.21,0 -0.31,0.13 -0.31,0.46 0,0.22 0.12,0.69 0.2,1.03 l 0.28,1.08 c 0.03,0.15 0.13,0.52 0.17,0.67 0.05,0.23 0.15,0.61 0.15,0.67 0,0.18 -0.14,0.27 -0.29,0.27 -0.05,0 -0.31,-0.01 -0.39,-0.35 -0.19,-0.73 -0.62,-2.46 -0.74,-2.99 -0.01,-0.04 -0.41,-0.84 -1.14,-0.84 -0.52,0 -0.62,0.45 -0.62,0.82 0,0.56 0.28,1.34 0.54,2.02 0.12,0.3 0.17,0.44 0.17,0.63 0,0.45 -0.32,0.82 -0.82,0.82 -0.95,0 -1.31,-1.45 -1.31,-1.53 0,-0.1 0.09,-0.1 0.11,-0.1 0.1,0 0.11,0.02 0.16,0.17 0.25,0.87 0.63,1.24 1.01,1.24 0.09,0 0.25,-0.01 0.25,-0.33 0,-0.24 -0.11,-0.53 -0.17,-0.68 -0.37,-0.98 -0.58,-1.6 -0.58,-2.08 0,-0.95 0.69,-1.19 1.23,-1.19 0.66,0 1.02,0.44 1.19,0.66 z"
         id="path4734" /><path
         style="fill:#000000;stroke-width:0"
         inkscape:connector-curvature="0"
         d="m 171.33052,662.35017 h 0.94 c 0.2,0 0.3,0 0.3,0.2 0,0.11 -0.1,0.11 -0.28,0.11 h -0.88 c 0.36,1.41 0.41,1.61 0.41,1.66 0,0.17 -0.12,0.27 -0.29,0.27 -0.03,0 -0.31,-0.01 -0.4,-0.35 l -0.39,-1.58 h -0.93 c -0.2,0 -0.3,0 -0.3,-0.19 0,-0.12 0.08,-0.12 0.28,-0.12 h 0.88 c -0.72,-2.82 -0.76,-2.99 -0.76,-3.17 0,-0.54 0.38,-0.91 0.91,-0.91 1.02,0 1.59,1.45 1.59,1.53 0,0.1 -0.08,0.1 -0.12,0.1 -0.09,0 -0.1,-0.04 -0.15,-0.14 -0.43,-1.04 -0.96,-1.28 -1.3,-1.28 -0.2,0 -0.3,0.13 -0.3,0.46 0,0.24 0.02,0.31 0.06,0.48 z"
         id="path4736" /></g>    <g
       ns0:jacobian_sqrt="0.911651"
       inkscapeversion="0.92.2"
       ns0:alignment="middle center"
       ns0:scale="2.58420887924"
       ns0:preamble="/home/newtonis/.config/inkscape/extensions/CircuitSymbolsLatexPreamble.tex"
       ns0:text="$output$"
       ns0:pdfconverter="pstoedit"
       ns0:texconverter="pdflatex"
       ns0:version="0.8.1"
       word-spacing="normal"
       letter-spacing="normal"
       font-size-adjust="none"
       font-stretch="normal"
       font-weight="normal"
       font-variant="normal"
       font-style="normal"
       stroke-miterlimit="10.433"
       xml:space="preserve"
       transform="matrix(0.911651,0,0,-0.911651,-80.00023,621.9472)"
       id="g4777"
       style="font-style:normal;font-variant:normal;font-weight:normal;font-stretch:normal;letter-spacing:normal;word-spacing:normal;text-anchor:start;fill:none;fill-opacity:1;fill-rule:evenodd;stroke:#000000;stroke-linecap:butt;stroke-linejoin:miter;stroke-miterlimit:10.43299961;stroke-dasharray:none;stroke-dashoffset:0;stroke-opacity:1"><path
         id="path4765"
         d="m 153.39,659.95 v 0.09 l -0.01,0.1 -0.01,0.09 -0.01,0.09 -0.02,0.08 -0.02,0.09 -0.03,0.08 -0.02,0.08 -0.04,0.07 -0.03,0.07 -0.04,0.07 -0.04,0.07 -0.04,0.07 -0.05,0.06 -0.05,0.06 -0.05,0.05 -0.06,0.06 -0.05,0.05 -0.06,0.04 -0.07,0.05 -0.06,0.04 -0.07,0.03 -0.07,0.04 -0.07,0.03 -0.07,0.03 -0.08,0.02 -0.07,0.02 -0.08,0.02 -0.08,0.01 -0.08,0.01 h -0.08 l -0.09,0.01 c -1.33,0 -2.67,-1.41 -2.67,-2.83 0,-0.98 0.67,-1.67 1.6,-1.67 l 0.01,0.21 c -0.43,0 -0.87,0.31 -0.87,1.09 0,0.48 0.26,1.56 0.58,2.06 0.5,0.77 1.06,0.92 1.34,0.92 0.58,0 0.88,-0.48 0.88,-1.08 0,-0.38 -0.2,-1.43 -0.58,-2.07 -0.35,-0.58 -0.9,-0.92 -1.35,-0.92 v 0 l -0.01,-0.21 c 1.32,0 2.67,1.37 2.67,2.82 z"
         inkscape:connector-curvature="0"
         style="fill:#000000;stroke-width:0" /><path
         id="path4767"
         d="m 157.03,657.79 0.01,-0.04 0.01,-0.03 0.02,-0.04 0.01,-0.03 0.02,-0.04 0.02,-0.03 0.02,-0.03 0.02,-0.03 0.02,-0.03 0.02,-0.03 0.02,-0.03 0.03,-0.03 0.02,-0.02 0.03,-0.03 0.03,-0.02 0.03,-0.02 0.02,-0.03 0.04,-0.02 0.03,-0.01 0.03,-0.02 0.03,-0.02 0.04,-0.01 0.03,-0.02 0.03,-0.01 0.04,-0.01 0.04,-0.01 0.03,-0.01 h 0.04 l 0.04,-0.01 h 0.04 0.04 0.04 c 0.35,0 0.58,0.22 0.74,0.54 0.17,0.36 0.3,0.97 0.3,0.99 0,0.1 -0.09,0.1 -0.12,0.1 -0.1,0 -0.11,-0.04 -0.14,-0.18 -0.14,-0.56 -0.33,-1.24 -0.75,-1.24 -0.21,0 -0.31,0.13 -0.31,0.46 0,0.22 0.12,0.69 0.2,1.03 l 0.28,1.08 c 0.03,0.15 0.13,0.52 0.17,0.67 0.05,0.23 0.15,0.61 0.15,0.67 0,0.18 -0.14,0.27 -0.29,0.27 -0.05,0 -0.31,-0.01 -0.39,-0.35 -0.19,-0.73 -0.63,-2.46 -0.75,-2.99 -0.01,-0.04 -0.41,-0.84 -1.14,-0.84 -0.51,0 -0.61,0.45 -0.61,0.82 0,0.56 0.28,1.34 0.53,2.02 0.12,0.3 0.17,0.44 0.17,0.63 0,0.45 -0.31,0.82 -0.81,0.82 -0.95,0 -1.32,-1.45 -1.32,-1.53 0,-0.1 0.1,-0.1 0.12,-0.1 0.1,0 0.11,0.02 0.16,0.17 0.25,0.87 0.63,1.24 1.01,1.24 0.09,0 0.25,-0.01 0.25,-0.33 0,-0.24 -0.11,-0.53 -0.17,-0.68 -0.37,-0.98 -0.58,-1.6 -0.58,-2.08 0,-0.95 0.69,-1.19 1.22,-1.19 0.66,0 1.02,0.44 1.19,0.66 z"
         inkscape:connector-curvature="0"
         style="fill:#000000;stroke-width:0" /><path
         id="path4769"
         d="m 161.3,661.21 h 0.94 c 0.19,0 0.3,0 0.3,0.2 0,0.11 -0.11,0.11 -0.28,0.11 h -0.88 c 0.36,1.41 0.41,1.61 0.41,1.66 0,0.17 -0.12,0.27 -0.29,0.27 -0.03,0 -0.31,-0.01 -0.4,-0.35 l -0.39,-1.58 h -0.94 c -0.2,0 -0.3,0 -0.3,-0.19 0,-0.12 0.08,-0.12 0.28,-0.12 h 0.88 c -0.72,-2.82 -0.76,-2.99 -0.76,-3.17 0,-0.54 0.38,-0.91 0.92,-0.91 1.02,0 1.59,1.45 1.59,1.53 0,0.1 -0.08,0.1 -0.12,0.1 -0.09,0 -0.1,-0.04 -0.15,-0.14 -0.43,-1.04 -0.96,-1.28 -1.3,-1.28 -0.21,0 -0.31,0.13 -0.31,0.46 0,0.24 0.02,0.31 0.06,0.48 z"
         inkscape:connector-curvature="0"
         style="fill:#000000;stroke-width:0" /><path
         id="path4771"
         d="m 163.29,656.02 -0.01,-0.03 v -0.03 l -0.01,-0.03 -0.01,-0.02 v -0.03 l -0.01,-0.02 -0.01,-0.02 -0.01,-0.02 v -0.02 l -0.01,-0.02 -0.01,-0.02 -0.01,-0.01 -0.01,-0.02 -0.01,-0.01 -0.01,-0.02 -0.01,-0.01 -0.02,-0.01 -0.01,-0.01 -0.02,-0.01 h -0.02 l -0.01,-0.01 -0.02,-0.01 h -0.03 l -0.02,-0.01 h -0.03 -0.01 l -0.01,-0.01 h -0.02 -0.01 -0.02 -0.01 -0.02 -0.02 -0.01 -0.02 -0.02 -0.02 -0.02 -0.02 c -0.12,0 -0.23,0 -0.23,-0.19 0,-0.08 0.05,-0.12 0.13,-0.12 0.27,0 0.56,0.03 0.84,0.03 0.33,0 0.67,-0.03 0.99,-0.03 0.05,0 0.18,0 0.18,0.2 0,0.11 -0.1,0.11 -0.24,0.11 -0.5,0 -0.5,0.06 -0.5,0.16 0,0.11 0.42,1.73 0.49,1.98 0.13,-0.29 0.41,-0.63 0.91,-0.63 v 0.21 c -0.66,0 -0.79,0.83 -0.79,0.89 0,0.02 0,0.04 0.03,0.16 l 0.49,1.94 c 0.07,0.27 0.33,0.55 0.51,0.7 0.35,0.31 0.64,0.38 0.81,0.38 0.4,0 0.64,-0.35 0.64,-0.94 0,-0.58 -0.33,-1.73 -0.51,-2.1 -0.34,-0.7 -0.82,-1.03 -1.18,-1.03 v -0.21 c 1.16,0 2.41,1.45 2.41,2.91 0,0.93 -0.57,1.59 -1.33,1.59 -0.5,0 -0.97,-0.36 -1.3,-0.75 -0.1,0.54 -0.53,0.75 -0.9,0.75 -0.46,0 -0.65,-0.39 -0.74,-0.57 -0.18,-0.34 -0.31,-0.93 -0.31,-0.96 0,-0.1 0.1,-0.1 0.12,-0.1 0.1,0 0.11,0.01 0.17,0.22 0.17,0.71 0.37,1.19 0.73,1.19 0.17,0 0.31,-0.08 0.31,-0.46 0,-0.23 -0.03,-0.34 -0.07,-0.51 z"
         inkscape:connector-curvature="0"
         style="fill:#000000;stroke-width:0" /><path
         id="path4773"
         d="m 171.34,657.79 0.02,-0.04 0.01,-0.03 0.01,-0.04 0.02,-0.03 0.01,-0.04 0.02,-0.03 0.02,-0.03 0.02,-0.03 0.02,-0.03 0.02,-0.03 0.03,-0.03 0.02,-0.03 0.03,-0.02 0.02,-0.03 0.03,-0.02 0.03,-0.02 0.03,-0.03 0.03,-0.02 0.03,-0.01 0.03,-0.02 0.03,-0.02 0.04,-0.01 0.03,-0.02 0.04,-0.01 0.03,-0.01 0.04,-0.01 0.04,-0.01 h 0.04 l 0.03,-0.01 h 0.04 0.04 0.04 c 0.35,0 0.58,0.22 0.74,0.54 0.17,0.36 0.3,0.97 0.3,0.99 0,0.1 -0.09,0.1 -0.12,0.1 -0.1,0 -0.11,-0.04 -0.14,-0.18 -0.14,-0.56 -0.33,-1.24 -0.75,-1.24 -0.21,0 -0.31,0.13 -0.31,0.46 0,0.22 0.12,0.69 0.2,1.03 l 0.28,1.08 c 0.03,0.15 0.13,0.52 0.17,0.67 0.05,0.23 0.15,0.61 0.15,0.67 0,0.18 -0.14,0.27 -0.29,0.27 -0.05,0 -0.31,-0.01 -0.39,-0.35 -0.19,-0.73 -0.63,-2.46 -0.75,-2.99 -0.01,-0.04 -0.4,-0.84 -1.13,-0.84 -0.52,0 -0.62,0.45 -0.62,0.82 0,0.56 0.28,1.34 0.54,2.02 0.12,0.3 0.17,0.44 0.17,0.63 0,0.45 -0.32,0.82 -0.82,0.82 -0.95,0 -1.32,-1.45 -1.32,-1.53 0,-0.1 0.1,-0.1 0.12,-0.1 0.1,0 0.11,0.02 0.16,0.17 0.25,0.87 0.63,1.24 1.01,1.24 0.09,0 0.25,-0.01 0.25,-0.33 0,-0.24 -0.11,-0.53 -0.17,-0.68 -0.37,-0.98 -0.58,-1.6 -0.58,-2.08 0,-0.95 0.69,-1.19 1.23,-1.19 0.66,0 1.02,0.44 1.18,0.66 z"
         inkscape:connector-curvature="0"
         style="fill:#000000;stroke-width:0" /><path
         id="path4775"
         d="m 175.61,661.21 h 0.94 c 0.2,0 0.3,0 0.3,0.2 0,0.11 -0.1,0.11 -0.28,0.11 h -0.88 c 0.36,1.41 0.41,1.61 0.41,1.66 0,0.17 -0.12,0.27 -0.29,0.27 -0.03,0 -0.31,-0.01 -0.4,-0.35 l -0.39,-1.58 h -0.93 c -0.2,0 -0.3,0 -0.3,-0.19 0,-0.12 0.08,-0.12 0.28,-0.12 h 0.87 c -0.71,-2.82 -0.75,-2.99 -0.75,-3.17 0,-0.54 0.38,-0.91 0.91,-0.91 1.02,0 1.59,1.45 1.59,1.53 0,0.1 -0.08,0.1 -0.12,0.1 -0.09,0 -0.1,-0.04 -0.15,-0.14 -0.43,-1.04 -0.96,-1.28 -1.3,-1.28 -0.21,0 -0.31,0.13 -0.31,0.46 0,0.24 0.02,0.31 0.06,0.48 z"
         inkscape:connector-curvature="0"
         style="fill:#000000;stroke-width:0" /></g>  </g>
</svg>
